<svg width="148" height="39" viewBox="0 0 148 39" fill="none" xmlns="http://www.w3.org/2000/svg">
<path d="M1.14773 15V3.36364H3.25568V8.71023H3.39773L7.9375 3.36364H10.5114L6.01136 8.58523L10.5511 15H8.01705L4.54545 10.0114L3.25568 11.5341V15H1.14773ZM12.1359 15V3.36364H14.2438V8.71023H14.3859L18.9256 3.36364H21.4995L16.9995 8.58523L21.5393 15H19.0052L15.5336 10.0114L14.2438 11.5341V15H12.1359ZM27.2115 4.31818V3.36364H35.649V4.31818H31.9615V15H30.899V4.31818H27.2115ZM38.2011 15V3.36364H44.9511V4.31818H39.2636V8.69886H44.5931V9.65341H39.2636V14.0455H45.0647V15H38.2011ZM56.9747 7H55.9065C55.827 6.60227 55.683 6.23485 55.4747 5.89773C55.2702 5.55682 55.0126 5.25947 54.702 5.00568C54.3914 4.75189 54.0391 4.55492 53.6452 4.41477C53.2512 4.27462 52.8251 4.20455 52.3668 4.20455C51.6319 4.20455 50.9615 4.39583 50.3554 4.77841C49.7531 5.16098 49.2702 5.72348 48.9065 6.46591C48.5467 7.20455 48.3668 8.10985 48.3668 9.18182C48.3668 10.2614 48.5467 11.1705 48.9065 11.9091C49.2702 12.6477 49.7531 13.2083 50.3554 13.5909C50.9615 13.9697 51.6319 14.1591 52.3668 14.1591C52.8251 14.1591 53.2512 14.089 53.6452 13.9489C54.0391 13.8087 54.3914 13.6136 54.702 13.3636C55.0126 13.1098 55.2702 12.8125 55.4747 12.4716C55.683 12.1307 55.827 11.7614 55.9065 11.3636H56.9747C56.88 11.8977 56.702 12.3958 56.4406 12.858C56.183 13.3163 55.8535 13.7178 55.452 14.0625C55.0543 14.4072 54.5959 14.6761 54.077 14.8693C53.558 15.0625 52.988 15.1591 52.3668 15.1591C51.3895 15.1591 50.5221 14.9148 49.7645 14.4261C49.0069 13.9337 48.4122 13.2405 47.9804 12.3466C47.5524 11.4527 47.3384 10.3977 47.3384 9.18182C47.3384 7.96591 47.5524 6.91098 47.9804 6.01705C48.4122 5.12311 49.0069 4.43182 49.7645 3.94318C50.5221 3.45076 51.3895 3.20455 52.3668 3.20455C52.988 3.20455 53.558 3.30114 54.077 3.49432C54.5959 3.68371 55.0543 3.95265 55.452 4.30114C55.8535 4.64583 56.183 5.04735 56.4406 5.50568C56.702 5.96402 56.88 6.46212 56.9747 7ZM59.6305 15V3.36364H60.693V8.69886H67.2952V3.36364H68.3577V15H67.2952V9.65341H60.693V15H59.6305ZM80.6655 3.36364V15H79.6314L72.7564 5.25568H72.6655V15H71.603V3.36364H72.6314L79.5291 13.1193H79.62V3.36364H80.6655ZM93.459 9.18182C93.459 10.3939 93.2431 11.4489 92.8112 12.3466C92.3794 13.2405 91.7847 13.9337 91.0272 14.4261C90.2734 14.9148 89.4059 15.1591 88.4249 15.1591C87.4438 15.1591 86.5745 14.9148 85.8169 14.4261C85.0631 13.9337 84.4703 13.2405 84.0385 12.3466C83.6105 11.4489 83.3965 10.3939 83.3965 9.18182C83.3965 7.9697 83.6105 6.91667 84.0385 6.02273C84.4703 5.125 85.065 4.43182 85.8226 3.94318C86.5802 3.45076 87.4476 3.20455 88.4249 3.20455C89.4059 3.20455 90.2734 3.45076 91.0272 3.94318C91.7847 4.43182 92.3794 5.125 92.8112 6.02273C93.2431 6.91667 93.459 7.9697 93.459 9.18182ZM92.4249 9.18182C92.4249 8.14015 92.2506 7.24811 91.9022 6.50568C91.5537 5.75947 91.0783 5.18939 90.476 4.79545C89.8737 4.40151 89.19 4.20455 88.4249 4.20455C87.6635 4.20455 86.9817 4.40151 86.3794 4.79545C85.7772 5.18939 85.2999 5.75758 84.9476 6.5C84.5991 7.24242 84.4249 8.13636 84.4249 9.18182C84.4249 10.2235 84.5991 11.1155 84.9476 11.858C85.2961 12.6004 85.7715 13.1705 86.3737 13.5682C86.976 13.9621 87.6597 14.1591 88.4249 14.1591C89.19 14.1591 89.8737 13.9621 90.476 13.5682C91.0821 13.1742 91.5594 12.6061 91.9078 11.8636C92.2563 11.1174 92.4287 10.2235 92.4249 9.18182ZM96.1886 15V3.36364H97.2511V14.0455H102.797V15H96.1886ZM114.435 9.18182C114.435 10.3939 114.219 11.4489 113.787 12.3466C113.356 13.2405 112.761 13.9337 112.003 14.4261C111.25 14.9148 110.382 15.1591 109.401 15.1591C108.42 15.1591 107.551 14.9148 106.793 14.4261C106.039 13.9337 105.447 13.2405 105.015 12.3466C104.587 11.4489 104.373 10.3939 104.373 9.18182C104.373 7.9697 104.587 6.91667 105.015 6.02273C105.447 5.125 106.041 4.43182 106.799 3.94318C107.556 3.45076 108.424 3.20455 109.401 3.20455C110.382 3.20455 111.25 3.45076 112.003 3.94318C112.761 4.43182 113.356 5.125 113.787 6.02273C114.219 6.91667 114.435 7.9697 114.435 9.18182ZM113.401 9.18182C113.401 8.14015 113.227 7.24811 112.878 6.50568C112.53 5.75947 112.055 5.18939 111.452 4.79545C110.85 4.40151 110.166 4.20455 109.401 4.20455C108.64 4.20455 107.958 4.40151 107.356 4.79545C106.753 5.18939 106.276 5.75758 105.924 6.5C105.575 7.24242 105.401 8.13636 105.401 9.18182C105.401 10.2235 105.575 11.1155 105.924 11.858C106.272 12.6004 106.748 13.1705 107.35 13.5682C107.952 13.9621 108.636 14.1591 109.401 14.1591C110.166 14.1591 110.85 13.9621 111.452 13.5682C112.058 13.1742 112.536 12.6061 112.884 11.8636C113.233 11.1174 113.405 10.2235 113.401 9.18182ZM125.216 7C125.11 6.61364 124.955 6.25189 124.75 5.91477C124.546 5.57386 124.292 5.27652 123.989 5.02273C123.689 4.76515 123.343 4.56439 122.949 4.42045C122.559 4.27651 122.123 4.20455 121.642 4.20455C120.885 4.20455 120.206 4.40151 119.608 4.79545C119.01 5.18939 118.536 5.75758 118.188 6.5C117.843 7.24242 117.671 8.13636 117.671 9.18182C117.671 10.2235 117.845 11.1155 118.193 11.858C118.542 12.6004 119.019 13.1705 119.625 13.5682C120.235 13.9621 120.932 14.1591 121.716 14.1591C122.432 14.1591 123.064 14 123.614 13.6818C124.163 13.3636 124.591 12.9091 124.898 12.3182C125.208 11.7273 125.36 11.0246 125.352 10.2102L125.693 10.3182H121.966V9.36364H126.386V10.3182C126.386 11.3106 126.186 12.1686 125.784 12.892C125.383 13.6155 124.831 14.1742 124.131 14.5682C123.43 14.9621 122.625 15.1591 121.716 15.1591C120.701 15.1591 119.813 14.9148 119.051 14.4261C118.29 13.9337 117.697 13.2405 117.273 12.3466C116.852 11.4489 116.642 10.3939 116.642 9.18182C116.642 8.26894 116.763 7.44508 117.006 6.71023C117.248 5.97538 117.591 5.34659 118.034 4.82386C118.481 4.30114 119.01 3.90151 119.619 3.625C120.229 3.3447 120.903 3.20455 121.642 3.20455C122.278 3.20455 122.86 3.30492 123.386 3.50568C123.917 3.70644 124.383 3.98295 124.784 4.33523C125.189 4.68371 125.521 5.08712 125.778 5.54545C126.04 6 126.216 6.48485 126.307 7H125.216ZM129.184 15V3.36364H135.934V4.31818H130.247V8.69886H135.576V9.65341H130.247V14.0455H136.048V15H129.184ZM145.162 6.27273C145.098 5.625 144.812 5.10985 144.304 4.72727C143.797 4.3447 143.159 4.15341 142.39 4.15341C141.848 4.15341 141.371 4.24621 140.958 4.43182C140.549 4.61742 140.227 4.875 139.992 5.20455C139.761 5.5303 139.645 5.90152 139.645 6.31818C139.645 6.625 139.712 6.89394 139.844 7.125C139.977 7.35606 140.155 7.55492 140.378 7.72159C140.606 7.88447 140.856 8.02462 141.128 8.14205C141.405 8.25947 141.683 8.35795 141.964 8.4375L143.191 8.78977C143.562 8.89205 143.933 9.02273 144.304 9.18182C144.676 9.34091 145.015 9.54167 145.321 9.78409C145.632 10.0227 145.88 10.3163 146.066 10.6648C146.255 11.0095 146.35 11.4242 146.35 11.9091C146.35 12.5303 146.189 13.089 145.867 13.5852C145.545 14.0814 145.083 14.4754 144.481 14.767C143.878 15.0549 143.157 15.1989 142.316 15.1989C141.524 15.1989 140.837 15.0682 140.253 14.8068C139.67 14.5417 139.212 14.1761 138.878 13.7102C138.545 13.2443 138.357 12.7045 138.316 12.0909H139.407C139.445 12.5492 139.596 12.9375 139.861 13.2557C140.126 13.5739 140.471 13.8163 140.895 13.983C141.32 14.1458 141.793 14.2273 142.316 14.2273C142.895 14.2273 143.41 14.1307 143.861 13.9375C144.316 13.7405 144.672 13.4678 144.929 13.1193C145.191 12.767 145.321 12.358 145.321 11.892C145.321 11.4981 145.219 11.1686 145.015 10.9034C144.81 10.6345 144.524 10.4091 144.157 10.2273C143.793 10.0455 143.371 9.88447 142.89 9.74432L141.498 9.33523C140.585 9.0625 139.876 8.68561 139.373 8.20455C138.869 7.72348 138.617 7.10985 138.617 6.36364C138.617 5.73864 138.784 5.18939 139.117 4.71591C139.454 4.23864 139.909 3.86742 140.481 3.60227C141.056 3.33333 141.702 3.19886 142.418 3.19886C143.142 3.19886 143.782 3.33144 144.339 3.59659C144.895 3.86174 145.337 4.22727 145.662 4.69318C145.992 5.1553 146.168 5.68182 146.191 6.27273H145.162Z" fill="white"/>
<path d="M7.86364 26.2727C7.79924 25.625 7.51326 25.1098 7.00568 24.7273C6.49811 24.3447 5.85985 24.1534 5.09091 24.1534C4.54924 24.1534 4.07197 24.2462 3.65909 24.4318C3.25 24.6174 2.92803 24.875 2.69318 25.2045C2.46212 25.5303 2.34659 25.9015 2.34659 26.3182C2.34659 26.625 2.41288 26.8939 2.54545 27.125C2.67803 27.3561 2.85606 27.5549 3.07955 27.7216C3.30682 27.8845 3.55682 28.0246 3.82955 28.142C4.10606 28.2595 4.38447 28.358 4.66477 28.4375L5.89205 28.7898C6.26326 28.892 6.63447 29.0227 7.00568 29.1818C7.37689 29.3409 7.71591 29.5417 8.02273 29.7841C8.33333 30.0227 8.58144 30.3163 8.76705 30.6648C8.95644 31.0095 9.05114 31.4242 9.05114 31.9091C9.05114 32.5303 8.89015 33.089 8.56818 33.5852C8.24621 34.0814 7.78409 34.4754 7.18182 34.767C6.57955 35.0549 5.85795 35.1989 5.01705 35.1989C4.22538 35.1989 3.53788 35.0682 2.95455 34.8068C2.37121 34.5417 1.91288 34.1761 1.57955 33.7102C1.24621 33.2443 1.05871 32.7045 1.01705 32.0909H2.10795C2.14583 32.5492 2.29735 32.9375 2.5625 33.2557C2.82765 33.5739 3.17235 33.8163 3.59659 33.983C4.02083 34.1458 4.49432 34.2273 5.01705 34.2273C5.59659 34.2273 6.11174 34.1307 6.5625 33.9375C7.01705 33.7405 7.37311 33.4678 7.63068 33.1193C7.89205 32.767 8.02273 32.358 8.02273 31.892C8.02273 31.4981 7.92046 31.1686 7.71591 30.9034C7.51136 30.6345 7.22538 30.4091 6.85795 30.2273C6.49432 30.0455 6.07197 29.8845 5.59091 29.7443L4.19886 29.3352C3.28598 29.0625 2.57765 28.6856 2.07386 28.2045C1.57008 27.7235 1.31818 27.1098 1.31818 26.3636C1.31818 25.7386 1.48485 25.1894 1.81818 24.7159C2.1553 24.2386 2.60985 23.8674 3.18182 23.6023C3.75758 23.3333 4.40341 23.1989 5.11932 23.1989C5.8428 23.1989 6.48295 23.3314 7.03977 23.5966C7.59659 23.8617 8.03788 24.2273 8.36364 24.6932C8.69318 25.1553 8.86932 25.6818 8.89205 26.2727H7.86364ZM27.2698 35.1818C26.516 35.1818 25.8493 34.9905 25.2698 34.608C24.694 34.2254 24.2433 33.697 23.9175 33.0227C23.5917 32.3447 23.4289 31.5625 23.4289 30.6761C23.4289 29.7822 23.5917 28.9962 23.9175 28.3182C24.2433 27.6364 24.694 27.1061 25.2698 26.7273C25.8493 26.3447 26.516 26.1534 27.2698 26.1534C28.0236 26.1534 28.6883 26.3447 29.2641 26.7273C29.8398 27.1098 30.2906 27.6402 30.6164 28.3182C30.9459 28.9962 31.1107 29.7822 31.1107 30.6761C31.1107 31.5625 30.9478 32.3447 30.622 33.0227C30.2963 33.697 29.8436 34.2254 29.2641 34.608C28.6883 34.9905 28.0236 35.1818 27.2698 35.1818ZM27.2698 34.2557C27.8758 34.2557 28.3891 34.0928 28.8095 33.767C29.23 33.4413 29.5482 33.0076 29.7641 32.4659C29.9838 31.9242 30.0936 31.3277 30.0936 30.6761C30.0936 30.0246 29.9838 29.4261 29.7641 28.8807C29.5482 28.3352 29.23 27.8977 28.8095 27.5682C28.3891 27.2386 27.8758 27.0739 27.2698 27.0739C26.6675 27.0739 26.1542 27.2386 25.73 27.5682C25.3095 27.8977 24.9895 28.3352 24.7698 28.8807C24.5539 29.4261 24.4459 30.0246 24.4459 30.6761C24.4459 31.3277 24.5539 31.9242 24.7698 32.4659C24.9895 33.0076 25.3095 33.4413 25.73 33.767C26.1505 34.0928 26.6637 34.2557 27.2698 34.2557ZM46.8222 23.3636V35H45.8109V23.3636H46.8222ZM67.5238 31.6648V26.2727H68.5352V35H67.5238V33.5511H67.4443C67.2397 33.9981 66.9159 34.3712 66.4727 34.6705C66.0295 34.9659 65.4878 35.1136 64.8477 35.1136C64.2909 35.1136 63.7965 34.9924 63.3647 34.75C62.9329 34.5038 62.5939 34.1439 62.3477 33.6705C62.1015 33.197 61.9784 32.6155 61.9784 31.9261V26.2727H62.9897V31.8636C62.9897 32.5455 63.1905 33.0947 63.592 33.5114C63.9935 33.9242 64.5087 34.1307 65.1374 34.1307C65.5314 34.1307 65.9102 34.036 66.2738 33.8466C66.6374 33.6572 66.9367 33.3807 67.1715 33.017C67.4064 32.6496 67.5238 32.1989 67.5238 31.6648ZM87.1302 26.2727V27.1534H82.9655V26.2727H87.1302ZM84.2666 24.1818H85.2836V32.7216C85.2836 33.0852 85.3461 33.3712 85.4711 33.5795C85.5961 33.7841 85.759 33.9299 85.9598 34.017C86.1605 34.1004 86.3745 34.142 86.6018 34.142C86.7344 34.142 86.848 34.1345 86.9427 34.1193C87.0374 34.1004 87.1208 34.0814 87.1927 34.0625L87.4086 34.9773C87.3101 35.0152 87.1889 35.0492 87.045 35.0795C86.9011 35.1136 86.723 35.1307 86.5109 35.1307C86.1397 35.1307 85.7817 35.0492 85.437 34.8864C85.0961 34.7235 84.8158 34.4811 84.5961 34.1591C84.3764 33.8371 84.2666 33.4375 84.2666 32.9602V24.1818ZM101.918 35V26.2727H102.936V35H101.918ZM102.436 24.7727C102.227 24.7727 102.049 24.7027 101.901 24.5625C101.754 24.4186 101.68 24.2462 101.68 24.0455C101.68 23.8447 101.754 23.6742 101.901 23.5341C102.049 23.3902 102.227 23.3182 102.436 23.3182C102.644 23.3182 102.822 23.3902 102.97 23.5341C103.117 23.6742 103.191 23.8447 103.191 24.0455C103.191 24.2462 103.117 24.4186 102.97 24.5625C102.822 24.7027 102.644 24.7727 102.436 24.7727ZM121.482 35.1818C120.728 35.1818 120.062 34.9905 119.482 34.608C118.907 34.2254 118.456 33.697 118.13 33.0227C117.804 32.3447 117.641 31.5625 117.641 30.6761C117.641 29.7822 117.804 28.9962 118.13 28.3182C118.456 27.6364 118.907 27.1061 119.482 26.7273C120.062 26.3447 120.728 26.1534 121.482 26.1534C122.236 26.1534 122.901 26.3447 123.477 26.7273C124.052 27.1098 124.503 27.6402 124.829 28.3182C125.158 28.9962 125.323 29.7822 125.323 30.6761C125.323 31.5625 125.16 32.3447 124.835 33.0227C124.509 33.697 124.056 34.2254 123.477 34.608C122.901 34.9905 122.236 35.1818 121.482 35.1818ZM121.482 34.2557C122.088 34.2557 122.602 34.0928 123.022 33.767C123.442 33.4413 123.761 33.0076 123.977 32.4659C124.196 31.9242 124.306 31.3277 124.306 30.6761C124.306 30.0246 124.196 29.4261 123.977 28.8807C123.761 28.3352 123.442 27.8977 123.022 27.5682C122.602 27.2386 122.088 27.0739 121.482 27.0739C120.88 27.0739 120.367 27.2386 119.942 27.5682C119.522 27.8977 119.202 28.3352 118.982 28.8807C118.766 29.4261 118.658 30.0246 118.658 30.6761C118.658 31.3277 118.766 31.9242 118.982 32.4659C119.202 33.0076 119.522 33.4413 119.942 33.767C120.363 34.0928 120.876 34.2557 121.482 34.2557ZM141.035 29.5455V35H140.023V26.2727H141.006V27.642H141.097C141.302 27.1951 141.62 26.8371 142.052 26.5682C142.487 26.2955 143.025 26.1591 143.665 26.1591C144.253 26.1591 144.768 26.2822 145.211 26.5284C145.658 26.7708 146.004 27.1288 146.251 27.6023C146.501 28.0758 146.626 28.6572 146.626 29.3466V35H145.614V29.4091C145.614 28.6932 145.414 28.1269 145.012 27.7102C144.614 27.2936 144.08 27.0852 143.41 27.0852C142.951 27.0852 142.544 27.1837 142.188 27.3807C141.832 27.5777 141.55 27.8617 141.342 28.233C141.137 28.6004 141.035 29.0379 141.035 29.5455Z" fill="white"/>
</svg>
