<svg width="11" height="10" viewBox="0 0 11 10" fill="none" xmlns="http://www.w3.org/2000/svg">
<path d="M10.1246 9.22688V9.2265H10.1269V5.85C10.1269 4.1982 9.77126 2.92578 7.84019 2.92578C6.91186 2.92578 6.28889 3.43521 6.03456 3.91817H6.00771V3.07999H4.17676V9.2265H6.08328V6.18297C6.08328 5.38162 6.23518 4.60674 7.22757 4.60674C8.20538 4.60674 8.21996 5.52125 8.21996 6.23438V9.22688H10.1246Z" fill="#777BBE"/>
<path d="M1.07227 3.07812H2.98108V9.22463H1.07227V3.07812Z" fill="#777BBE"/>
<path d="M2.02547 0.0195312C1.41516 0.0195312 0.919922 0.514765 0.919922 1.12508C0.919922 1.7354 1.41516 2.24099 2.02547 2.24099C2.63579 2.24099 3.13102 1.7354 3.13102 1.12508C3.13064 0.514765 2.6354 0.0195313 2.02547 0.0195313V0.0195312Z" fill="#777BBE"/>
</svg>
