<svg width="12" height="12" viewBox="0 0 12 12" fill="none" xmlns="http://www.w3.org/2000/svg">
<path d="M8.15979 0.183594H3.16984C1.54581 0.183594 0.224609 1.5048 0.224609 3.12882V8.11886C0.224609 9.74281 1.54581 11.064 3.16984 11.064H8.15988C9.78382 11.064 11.105 9.74281 11.105 8.11886V3.12882C11.105 1.5048 9.78382 0.183594 8.15979 0.183594V0.183594ZM10.4672 8.11886C10.4672 9.39109 9.4321 10.4262 8.15979 10.4262H3.16984C1.89753 10.4262 0.862466 9.39109 0.862466 8.11886V3.12882C0.862466 1.85651 1.89753 0.82145 3.16984 0.82145H8.15988C9.4321 0.82145 10.4672 1.85651 10.4672 3.12882V8.11886Z" fill="#777BBE"/>
<path d="M5.66448 2.64844C4.02402 2.64844 2.68945 3.983 2.68945 5.62347C2.68945 7.26393 4.02402 8.5985 5.66448 8.5985C7.30495 8.5985 8.63951 7.26393 8.63951 5.62347C8.63951 3.983 7.30495 2.64844 5.66448 2.64844ZM5.66448 7.96064C4.37582 7.96064 3.32731 6.91221 3.32731 5.62347C3.32731 4.33481 4.37582 3.28629 5.66448 3.28629C6.95323 3.28629 8.00166 4.33481 8.00166 5.62347C8.00166 6.91221 6.95323 7.96064 5.66448 7.96064Z" fill="#777BBE"/>
<path d="M8.71112 1.59375C8.22633 1.59375 7.83203 1.98814 7.83203 2.47284C7.83203 2.95762 8.22633 3.35201 8.71112 3.35201C9.1959 3.35201 9.59029 2.95762 9.59029 2.47284C9.59029 1.98805 9.1959 1.59375 8.71112 1.59375ZM8.71112 2.71407C8.57813 2.71407 8.46989 2.60582 8.46989 2.47284C8.46989 2.33977 8.57813 2.23161 8.71112 2.23161C8.84418 2.23161 8.95243 2.33977 8.95243 2.47284C8.95243 2.60582 8.84418 2.71407 8.71112 2.71407Z" fill="#777BBE"/>
</svg>
