<svg width="12" height="9" viewBox="0 0 12 9" fill="none" xmlns="http://www.w3.org/2000/svg">
<path d="M11.1158 1.08562C10.7112 1.26311 10.28 1.38076 9.83053 1.43788C10.293 1.16179 10.6459 0.72793 10.8118 0.204989C10.3807 0.462039 9.90466 0.643607 9.39736 0.744931C8.98798 0.309033 8.40452 0.0390625 7.76801 0.0390625C6.53308 0.0390625 5.53888 1.04142 5.53888 2.27023C5.53888 2.44704 5.55384 2.61705 5.59057 2.77889C3.73613 2.68845 2.09523 1.79965 0.992902 0.445719C0.800454 0.779612 0.68757 1.16179 0.68757 1.5732C0.68757 2.34572 1.08539 3.0305 1.67837 3.42696C1.31999 3.42016 0.968421 3.31611 0.670569 3.15223C0.670569 3.15903 0.670569 3.16787 0.670569 3.17671C0.670569 4.26067 1.44376 5.16103 2.45768 5.36844C2.27611 5.41808 2.07823 5.44188 1.87286 5.44188C1.73005 5.44188 1.58589 5.43372 1.45056 5.4038C1.73957 6.28715 2.55968 6.93658 3.53484 6.95766C2.77593 7.55132 1.81233 7.90902 0.769173 7.90902C0.586246 7.90902 0.410799 7.90086 0.235352 7.87842C1.22343 8.5156 2.39444 8.87942 3.65725 8.87942C7.76189 8.87942 10.006 5.47928 10.006 2.53204C10.006 2.43344 10.0026 2.33823 9.99782 2.24371C10.4405 1.92954 10.8125 1.53716 11.1158 1.08562Z" fill="#777BBE"/>
</svg>
